<?xml version="1.0" encoding="UTF-8" standalone="no"?>
<!DOCTYPE svg PUBLIC "-//W3C//DTD SVG 1.1//EN" "http://www.w3.org/Graphics/SVG/1.1/DTD/svg11.dtd">
<svg width="100%" height="100%" viewBox="0 0 470 129" version="1.1" xmlns="http://www.w3.org/2000/svg" xmlns:xlink="http://www.w3.org/1999/xlink" xml:space="preserve" xmlns:serif="http://www.serif.com/" style="fill-rule:evenodd;clip-rule:evenodd;stroke-linejoin:round;stroke-miterlimit:1.41421;">
    <g id="Ebene-2" serif:id="Ebene 2">
        <g transform="matrix(1,0,0,1,32.3257,60.9567)">
            <path d="M0,45.685L6.532,27.738L44.975,27.738L34.175,-1.931C33.706,-3.22 32.481,-4.079 31.109,-4.079L15.188,-4.079C13.816,-4.079 12.591,-3.22 12.122,-1.931L-13.226,67.712L-32.326,67.712L-2.399,-14.511C-0.757,-19.023 3.532,-22.027 8.333,-22.027L37.964,-22.027C42.765,-22.027 47.054,-19.023 48.697,-14.511L78.623,67.712L59.523,67.712L51.507,45.685L0,45.685Z" style="fill:white;fill-rule:nonzero;"/>
        </g>
        <g transform="matrix(1,0,0,1,205.576,128.669)">
            <path d="M0,-89.739L0,-71.791L-68.528,-71.791C-70.33,-71.791 -71.791,-70.33 -71.791,-68.528L-71.791,-21.212C-71.791,-19.41 -70.33,-17.948 -68.528,-17.948L-21.211,-17.948C-19.409,-17.948 -17.948,-19.41 -17.948,-21.212L-17.948,-32.633C-17.948,-34.434 -19.409,-35.895 -21.211,-35.895L-67.712,-35.895L-67.712,-53.843L-11.421,-53.843C-5.114,-53.843 0,-48.729 0,-42.423L0,-11.422C0,-5.113 -5.114,0 -11.421,0L-78.317,0C-84.625,0 -89.739,-5.113 -89.739,-11.422L-89.739,-78.317C-89.739,-84.626 -84.625,-89.739 -78.317,-89.739L0,-89.739Z" style="fill:white;fill-rule:nonzero;"/>
        </g>
        <g transform="matrix(-1,-0,-0,1,451.942,38.93)">
            <rect x="216.997" y="0" width="17.948" height="89.739" style="fill:white;"/>
        </g>
        <g transform="matrix(-1,-0,-0,1,451.942,-90.781)">
            <rect x="216.997" y="93.817" width="17.948" height="31.816" style="fill:white;"/>
        </g>
        <g transform="matrix(1,0,0,1,368.735,20.9828)">
            <path d="M0,89.738L-101.158,89.738C-102.96,89.738 -104.422,88.276 -104.422,86.474L-104.422,-17.948L-122.369,-17.948L-122.369,96.264C-122.369,102.573 -117.256,107.686 -110.948,107.686L-11.42,107.686C-5.112,107.686 0,102.573 0,96.264L0,89.738Z" style="fill:white;fill-rule:nonzero;"/>
        </g>
        <g transform="matrix(1,0,0,1,350.788,58.5086)">
            <path d="M0,28.554C0,30.356 -1.46,31.817 -3.263,31.817L-50.579,31.817C-52.382,31.817 -53.843,30.356 -53.843,28.554L-53.843,1.632C-53.843,-0.17 -52.382,-1.631 -50.579,-1.631L-3.263,-1.631C-1.46,-1.631 0,-0.17 0,1.632L0,28.554ZM6.527,-19.579L-60.368,-19.579C-66.677,-19.579 -71.79,-14.466 -71.79,-8.157L-71.79,36.712C-71.79,43.02 -66.677,48.133 -60.368,48.133L6.527,48.133C12.835,48.133 17.947,43.02 17.947,36.712L17.947,-8.157C17.947,-14.466 12.835,-19.579 6.527,-19.579" style="fill:white;fill-rule:nonzero;"/>
        </g>
        <g transform="matrix(1,0,0,1,422.416,102.237)">
            <path d="M0,-36.876C1.081,-35.434 3.126,-35.142 4.568,-36.223C4.815,-36.408 5.035,-36.628 5.222,-36.876L25.045,-63.308L47.479,-63.308L15.296,-20.396C14.426,-19.235 14.426,-17.641 15.296,-16.48L47.479,26.432L25.045,26.432L5.222,-0.001C4.14,-1.442 2.095,-1.734 0.652,-0.653C0.405,-0.468 0.186,-0.249 0,-0.001L-19.824,26.432L-42.259,26.432L-10.075,-16.48C-9.205,-17.641 -9.205,-19.235 -10.075,-20.396L-42.259,-63.308L-19.824,-63.308L0,-36.876Z" style="fill:rgb(149,215,5);fill-rule:nonzero;"/>
        </g>
    </g>
</svg>
